<svg xmlns="http://www.w3.org/2000/svg" version="1.1" viewBox="0 0 360 369" height="369" width="360">
    <rect fill="#17128b" stroke="none" height="369" width="360" y="0" x="0" id="Background"></rect>
    <path fill="#fff" stroke="none" d="M48.8,369L0,369L0,313.1L85.7,226.4C107.9,239.2 131.5,253.6 150.6,265.9L48.8,369ZM59.2,148.3C58.5,147.7 57.9,146.8 58.2,145.4C62.6,124.5 71.9,105.0 86.7,89.5C99.0,76.7 114.9,67.1 132.1,61.4C143.5,57.6 155.4,56.0 167.4,56.0C204.2,56.2 239.3,75.5 259.4,106.3C280.9,139.1 284.0,180.1 265.6,218.5C258.6,233.0 249.7,241.9 239.0,251.9C229.0,261.1 221.4,269.9 215.1,277.8C207.5,287.2 201.9,295.7 198.6,303.6C192.9,317.1 189.6,325.8 179.1,335.2C171.5,342.0 162.5,346.4 152.3,347.3C135.9,348.9 123.5,344.6 114.3,337.1C112.9,336.0 111.1,333.0 111.0,330.1C110.9,324.9 113.8,321.7 119.1,321.6C122.2,321.6 124.0,323.5 126.8,325.4C136.8,332.2 149.8,334.2 163.1,325.9C174.7,318.5 179.9,300.7 186.6,288.2C197.4,267.8 212.9,250.1 229.8,234.6C254.9,211.4 265.8,176.0 254.7,140.0C248.9,120.9 236.8,103.9 220.4,92.2C209.9,84.7 197.1,79.1 184.0,76.7C164.3,73.0 145.8,74.4 125.4,84.7C111.8,91.5 99.4,102.9 91.0,115.2C82.6,127.4 77.6,141.1 75.9,155.9C75.8,156.4 75.4,156.7 74.8,156.5C74.3,156.3 73.7,156.1 73.2,155.8C67.6,153.5 63.4,151.3 59.2,148.3ZM98.6,138.8C97.7,138.1 97.5,137.2 98.0,136.0C105.7,118.9 119.1,105.0 136.2,97.2C146.3,92.7 157.4,90.2 168.5,90.3C187.9,90.4 207.0,98.1 221.1,111.5C238.8,128.4 247.4,153.6 244.0,177.8C242.1,191.6 236.8,206.4 227.7,215.2C227.5,215.4 227.2,215.6 226.7,215.6C223.6,215.2 220.7,214.3 217.3,211.4C216.1,210.4 215.6,209.9 215.0,209.1C214.7,208.7 214.6,207.9 215.1,207.2C222.4,198.6 227.4,186.6 229.0,175.4C231.6,156.7 223.0,136.8 209.3,123.7C198.4,113.3 189.4,107.1 167.6,107.2C145.8,107.4 125.9,117.7 114.7,139.2C113.9,140.8 113.1,142.5 112.5,144.1C112.2,144.8 111.5,145.1 110.5,144.8C108.9,144.4 107.3,144.1 105.8,143.4C102.7,142.0 100.8,140.5 98.6,138.8ZM244.0,66.0L309.3,0L360,0L360,53.9C360,53.9 300.7,114.1 288.6,126.2C287.9,126.9 287.5,126.9 287.3,126.1C279.1,102.0 263.8,81.2 244.0,66.0Z" id="Foreground"></path>
</svg>
